# xmcd CD database file
#
# Track frame offsets:
#	150
#	13376
#	26620
#	37663
#	51416
#	64530
#	76596
#	91097
#	105571
#	117665
#	129220
#	140630
#	152167
#	166921
#	179342
#	193708
#	202259
#	215099
#	227894
#	240358
#	252158
#	266512
#	278118
#	289109
#	299265
#	310130
#	319028
#	334824
#
# Disc length: 4660 seconds
#
# Revision: 1
# Processed by: cddbd v1.5.1PL0 Copyright (c) Steve Scherf et al.
# Submitted via: CDex 1.40Release
#
DISCID=9612321c
DTITLE=Nat King Cole - The World Of Nat King Cole
DYEAR=2005
DGENRE=Jazz
TTITLE0=Smile
TTITLE1=It's Only A Paper Moon
TTITLE2=Straighten Up And Fly Right
TTITLE3=(Get Your Kicks On) Route 66
TTITLE4=(I Love You) For Sentimental Reasons
TTITLE5=Nature Boy
TTITLE6=Too Young
TTITLE7=Unforgettable
TTITLE8=Walkin' My Baby Back Home
TTITLE9=Orange Colored Skin
TTITLE10=Send For Me
TTITLE11=A Blossom Fell
TTITLE12=Mona Lisa
TTITLE13=Quizas, Quizas, Quizas (Perhaps, Perhaps, Perhaps)
TTITLE14=On The Street Where You Live
TTITLE15=Almost Like Being In Love
TTITLE16=Darling, Je Vous Aime Beaucoup
TTITLE17=Ramblin' Rose
TTITLE18=Let There Be Love
TTITLE19=You Stepped Out Of A Dream
TTITLE20=When I Fall In Love
TTITLE21=L-O-V-E
TTITLE22=Let's Face The Music And Dance
TTITLE23=Just One Of Those Things
TTITLE24=Day In - Day Out
TTITLE25=Thou Swell
TTITLE26=Unforgettable
TTITLE27=Stardust
EXTD=YEAR: 2005 ID3G: 8
EXTT0=
EXTT1=
EXTT2=
EXTT3=
EXTT4=
EXTT5=
EXTT6=
EXTT7=
EXTT8=
EXTT9=
EXTT10=
EXTT11=
EXTT12=
EXTT13=
EXTT14=
EXTT15=
EXTT16=
EXTT17=
EXTT18=
EXTT19=
EXTT20=
EXTT21=
EXTT22=
EXTT23=
EXTT24=
EXTT25=
EXTT26=
EXTT27=
PLAYORDER=
